<svg xmlns="http://www.w3.org/2000/svg" xmlns:xlink="http://www.w3.org/1999/xlink" width="500" zoomAndPan="magnify" viewBox="0 0 375 374.999991" height="500" preserveAspectRatio="xMidYMid meet" version="1.2"><defs><clipPath id="2c48e74ae2"><path d="M 37.5 37.5 L 337.5 37.5 L 337.5 337.5 L 37.5 337.5 Z M 37.5 37.5 "/></clipPath><clipPath id="c23cf9958e"><path d="M 37.5 183 L 88 183 L 88 238 L 37.5 238 Z M 37.5 183 "/></clipPath><clipPath id="4552acb5c7"><path d="M 287 183 L 337.5 183 L 337.5 238 L 287 238 Z M 287 183 "/></clipPath><clipPath id="6a62eb11fe"><path d="M 162 304 L 213 304 L 213 337.5 L 162 337.5 Z M 162 304 "/></clipPath></defs><g id="f0e48ddbc3"><g clip-rule="nonzero" clip-path="url(#2c48e74ae2)"><path style=" stroke:none;fill-rule:nonzero;fill:#ff175f;fill-opacity:1;" d="M 100.035156 185.082031 L 100.035156 124.964844 L 149.742188 75.257812 L 149.742188 131.414062 C 146.003906 133.6875 143.292969 137.574219 143.292969 142.265625 C 143.292969 143.878906 143.660156 145.417969 144.246094 146.882812 Z M 169.097656 142.265625 C 169.097656 144.976562 168.070312 147.324219 166.605469 149.449219 L 212.351562 213.820312 L 212.351562 62.351562 L 187.5 37.5 L 162.648438 62.351562 L 162.648438 131.339844 C 166.457031 133.542969 169.097656 137.5 169.097656 142.265625 Z M 80.902344 196.222656 C 80.902344 191.53125 83.542969 187.648438 87.28125 185.375 L 87.28125 137.71875 L 37.5 187.5 L 87.207031 237.207031 L 87.207031 207.074219 C 83.46875 204.875 80.902344 200.917969 80.902344 196.222656 Z M 269.390625 179.433594 C 268.804688 177.96875 268.4375 176.355469 268.4375 174.671875 C 268.4375 169.90625 271.152344 165.945312 274.964844 163.671875 L 274.964844 124.964844 L 225.257812 75.257812 L 225.257812 218.804688 Z M 287.792969 137.792969 L 287.792969 163.820312 C 291.53125 166.09375 294.171875 169.976562 294.171875 174.671875 C 294.171875 179.363281 291.53125 183.246094 287.792969 185.519531 L 287.792969 237.28125 L 337.5 187.574219 Z M 230.683594 225.550781 C 231.269531 227.015625 231.636719 228.628906 231.636719 230.316406 C 231.636719 235.007812 228.996094 238.964844 225.183594 241.164062 L 225.183594 299.742188 L 274.890625 250.035156 L 274.890625 186.035156 Z M 105.683594 191.679688 C 106.269531 193.144531 106.636719 194.613281 106.636719 196.296875 C 106.636719 201.0625 103.921875 205.023438 100.109375 207.292969 L 100.109375 250.183594 L 149.816406 299.890625 L 149.816406 153.554688 Z M 205.902344 230.316406 C 205.902344 227.601562 206.929688 225.257812 208.394531 223.128906 L 162.648438 158.761719 L 162.648438 312.648438 L 187.5 337.5 L 212.351562 312.648438 L 212.351562 241.238281 C 208.542969 238.964844 205.902344 235.007812 205.902344 230.316406 Z M 205.902344 230.316406 "/></g><path style=" stroke:none;fill-rule:nonzero;fill:#c1175f;fill-opacity:1;" d="M 143.363281 142.265625 C 143.363281 141.3125 143.511719 140.433594 143.730469 139.554688 L 100.035156 177.308594 L 100.035156 185.082031 L 144.246094 146.882812 C 143.730469 145.417969 143.363281 143.878906 143.363281 142.265625 Z M 143.363281 142.265625 "/><g clip-rule="nonzero" clip-path="url(#c23cf9958e)"><path style=" stroke:none;fill-rule:nonzero;fill:#c1175f;fill-opacity:1;" d="M 37.5 187.5 L 87.207031 237.207031 L 87.207031 229.507812 L 41.386719 183.613281 Z M 37.5 187.5 "/></g><path style=" stroke:none;fill-rule:nonzero;fill:#c1175f;fill-opacity:1;" d="M 268.363281 174.671875 C 268.363281 173.863281 268.511719 173.058594 268.730469 172.25 L 225.183594 211.035156 L 225.183594 218.804688 L 269.316406 179.433594 C 268.730469 177.96875 268.363281 176.355469 268.363281 174.671875 Z M 268.363281 174.671875 "/><path style=" stroke:none;fill-rule:nonzero;fill:#c1175f;fill-opacity:1;" d="M 166.679688 149.449219 L 212.425781 213.820312 L 212.425781 206.046875 L 168.730469 144.539062 C 168.292969 146.296875 167.632812 147.984375 166.679688 149.449219 Z M 166.679688 149.449219 "/><path style=" stroke:none;fill-rule:nonzero;fill:#c1175f;fill-opacity:1;" d="M 225.183594 299.816406 L 274.964844 250.035156 L 274.964844 242.339844 L 225.183594 292.046875 Z M 225.183594 299.816406 "/><g clip-rule="nonzero" clip-path="url(#4552acb5c7)"><path style=" stroke:none;fill-rule:nonzero;fill:#c1175f;fill-opacity:1;" d="M 287.792969 229.507812 L 287.792969 237.207031 L 337.5 187.5 L 333.613281 183.613281 Z M 287.792969 229.507812 "/></g><path style=" stroke:none;fill-rule:nonzero;fill:#c1175f;fill-opacity:1;" d="M 100.035156 250.035156 L 149.816406 299.816406 L 149.816406 292.046875 L 100.035156 242.339844 Z M 100.035156 250.035156 "/><g clip-rule="nonzero" clip-path="url(#6a62eb11fe)"><path style=" stroke:none;fill-rule:nonzero;fill:#c1175f;fill-opacity:1;" d="M 162.648438 304.875 L 162.648438 312.648438 L 187.5 337.5 L 212.351562 312.648438 L 212.351562 304.875 L 187.5 329.730469 Z M 162.648438 304.875 "/></g><path style=" stroke:none;fill-rule:nonzero;fill:#c1175f;fill-opacity:1;" d="M 99.816406 196.222656 C 99.816406 199.597656 97.105469 202.308594 93.730469 202.308594 C 90.359375 202.308594 87.648438 199.597656 87.648438 196.222656 C 87.648438 192.851562 90.359375 190.140625 93.730469 190.140625 C 97.105469 190.140625 99.816406 192.851562 99.816406 196.222656 Z M 156.269531 136.179688 C 152.894531 136.179688 150.183594 138.894531 150.183594 142.265625 C 150.183594 145.636719 152.894531 148.351562 156.269531 148.351562 C 159.640625 148.351562 162.351562 145.636719 162.351562 142.265625 C 162.351562 138.894531 159.640625 136.179688 156.269531 136.179688 Z M 218.730469 224.230469 C 215.359375 224.230469 212.648438 226.941406 212.648438 230.316406 C 212.648438 233.6875 215.359375 236.398438 218.730469 236.398438 C 222.105469 236.398438 224.816406 233.6875 224.816406 230.316406 C 224.816406 226.941406 222.105469 224.230469 218.730469 224.230469 Z M 281.269531 168.511719 C 277.894531 168.511719 275.183594 171.222656 275.183594 174.597656 C 275.183594 177.96875 277.894531 180.683594 281.269531 180.683594 C 284.640625 180.683594 287.351562 177.96875 287.351562 174.597656 C 287.351562 171.296875 284.640625 168.511719 281.269531 168.511719 Z M 281.269531 168.511719 "/></g></svg>