<svg xmlns="http://www.w3.org/2000/svg" xmlns:xlink="http://www.w3.org/1999/xlink" width="500" zoomAndPan="magnify" viewBox="0 0 375 374.999991" height="500" preserveAspectRatio="xMidYMid meet" version="1.2"><defs><clipPath id="ea30174e6d"><path d="M 37.5 158.320312 L 96.070312 158.320312 L 96.070312 216.886719 L 37.5 216.886719 Z M 37.5 158.320312 "/></clipPath><clipPath id="ab4aa3f24f"><path d="M 37.5 186 L 48 186 L 48 198 L 37.5 198 Z M 37.5 186 "/></clipPath><clipPath id="90a423a6b3"><path d="M 86 186 L 96.070312 186 L 96.070312 198 L 86 198 Z M 86 186 "/></clipPath><clipPath id="4f95f580dc"><path d="M 61 210 L 72 210 L 72 216.886719 L 61 216.886719 Z M 61 210 "/></clipPath></defs><g id="04fbc46e05"><g clip-rule="nonzero" clip-path="url(#ea30174e6d)"><path style=" stroke:none;fill-rule:nonzero;fill:#ff175f;fill-opacity:1;" d="M 49.710938 187.132812 L 49.710938 175.394531 L 59.414062 165.691406 L 59.414062 176.652344 C 58.683594 177.097656 58.152344 177.855469 58.152344 178.773438 C 58.152344 179.085938 58.226562 179.386719 58.339844 179.675781 Z M 63.191406 178.773438 C 63.191406 179.300781 62.992188 179.761719 62.707031 180.175781 L 71.636719 192.742188 L 71.636719 163.171875 L 66.785156 158.320312 L 61.933594 163.171875 L 61.933594 176.640625 C 62.675781 177.070312 63.191406 177.84375 63.191406 178.773438 Z M 45.972656 189.308594 C 45.972656 188.390625 46.488281 187.632812 47.21875 187.1875 L 47.21875 177.886719 L 37.5 187.605469 L 47.203125 197.308594 L 47.203125 191.425781 C 46.472656 190.996094 45.972656 190.222656 45.972656 189.308594 Z M 82.773438 186.03125 C 82.65625 185.742188 82.585938 185.429688 82.585938 185.097656 C 82.585938 184.167969 83.117188 183.394531 83.859375 182.953125 L 83.859375 175.394531 L 74.15625 165.691406 L 74.15625 193.714844 Z M 86.363281 177.898438 L 86.363281 182.980469 C 87.09375 183.425781 87.609375 184.183594 87.609375 185.097656 C 87.609375 186.015625 87.09375 186.773438 86.363281 187.21875 L 86.363281 197.324219 L 96.070312 187.617188 Z M 75.214844 195.03125 C 75.328125 195.320312 75.402344 195.632812 75.402344 195.960938 C 75.402344 196.878906 74.886719 197.652344 74.140625 198.082031 L 74.140625 209.515625 L 83.847656 199.8125 L 83.847656 187.316406 Z M 50.8125 188.417969 C 50.925781 188.707031 50.996094 188.992188 50.996094 189.320312 C 50.996094 190.25 50.46875 191.023438 49.722656 191.46875 L 49.722656 199.839844 L 59.429688 209.546875 L 59.429688 180.976562 Z M 70.378906 195.960938 C 70.378906 195.433594 70.578125 194.976562 70.863281 194.558594 L 61.933594 181.992188 L 61.933594 212.035156 L 66.785156 216.886719 L 71.636719 212.035156 L 71.636719 198.09375 C 70.894531 197.652344 70.378906 196.878906 70.378906 195.960938 Z M 70.378906 195.960938 "/></g><path style=" stroke:none;fill-rule:nonzero;fill:#c1175f;fill-opacity:1;" d="M 58.167969 178.773438 C 58.167969 178.585938 58.195312 178.414062 58.238281 178.242188 L 49.710938 185.613281 L 49.710938 187.132812 L 58.339844 179.675781 C 58.238281 179.386719 58.167969 179.085938 58.167969 178.773438 Z M 58.167969 178.773438 "/><g clip-rule="nonzero" clip-path="url(#ab4aa3f24f)"><path style=" stroke:none;fill-rule:nonzero;fill:#c1175f;fill-opacity:1;" d="M 37.5 187.605469 L 47.203125 197.308594 L 47.203125 195.804688 L 38.257812 186.84375 Z M 37.5 187.605469 "/></g><path style=" stroke:none;fill-rule:nonzero;fill:#c1175f;fill-opacity:1;" d="M 82.570312 185.097656 C 82.570312 184.941406 82.601562 184.785156 82.644531 184.625 L 74.140625 192.199219 L 74.140625 193.714844 L 82.757812 186.03125 C 82.644531 185.742188 82.570312 185.429688 82.570312 185.097656 Z M 82.570312 185.097656 "/><path style=" stroke:none;fill-rule:nonzero;fill:#c1175f;fill-opacity:1;" d="M 62.71875 180.175781 L 71.652344 192.742188 L 71.652344 191.226562 L 63.121094 179.214844 C 63.035156 179.558594 62.90625 179.890625 62.71875 180.175781 Z M 62.71875 180.175781 "/><path style=" stroke:none;fill-rule:nonzero;fill:#c1175f;fill-opacity:1;" d="M 74.140625 209.53125 L 83.859375 199.8125 L 83.859375 198.308594 L 74.140625 208.015625 Z M 74.140625 209.53125 "/><g clip-rule="nonzero" clip-path="url(#90a423a6b3)"><path style=" stroke:none;fill-rule:nonzero;fill:#c1175f;fill-opacity:1;" d="M 86.363281 195.804688 L 86.363281 197.308594 L 96.070312 187.605469 L 95.3125 186.84375 Z M 86.363281 195.804688 "/></g><path style=" stroke:none;fill-rule:nonzero;fill:#c1175f;fill-opacity:1;" d="M 49.710938 199.8125 L 59.429688 209.53125 L 59.429688 208.015625 L 49.710938 198.308594 Z M 49.710938 199.8125 "/><g clip-rule="nonzero" clip-path="url(#4f95f580dc)"><path style=" stroke:none;fill-rule:nonzero;fill:#c1175f;fill-opacity:1;" d="M 61.933594 210.519531 L 61.933594 212.035156 L 66.785156 216.886719 L 71.636719 212.035156 L 71.636719 210.519531 L 66.785156 215.371094 Z M 61.933594 210.519531 "/></g><path style=" stroke:none;fill-rule:nonzero;fill:#c1175f;fill-opacity:1;" d="M 49.667969 189.308594 C 49.667969 189.964844 49.136719 190.496094 48.476562 190.496094 C 47.820312 190.496094 47.289062 189.964844 47.289062 189.308594 C 47.289062 188.648438 47.820312 188.117188 48.476562 188.117188 C 49.136719 188.117188 49.667969 188.648438 49.667969 189.308594 Z M 60.6875 177.585938 C 60.027344 177.585938 59.5 178.113281 59.5 178.773438 C 59.5 179.429688 60.027344 179.960938 60.6875 179.960938 C 61.347656 179.960938 61.875 179.429688 61.875 178.773438 C 61.875 178.113281 61.347656 177.585938 60.6875 177.585938 Z M 72.882812 194.773438 C 72.222656 194.773438 71.695312 195.304688 71.695312 195.960938 C 71.695312 196.621094 72.222656 197.152344 72.882812 197.152344 C 73.539062 197.152344 74.070312 196.621094 74.070312 195.960938 C 74.070312 195.304688 73.539062 194.773438 72.882812 194.773438 Z M 85.089844 183.898438 C 84.433594 183.898438 83.902344 184.425781 83.902344 185.085938 C 83.902344 185.742188 84.433594 186.273438 85.089844 186.273438 C 85.75 186.273438 86.277344 185.742188 86.277344 185.085938 C 86.277344 184.441406 85.75 183.898438 85.089844 183.898438 Z M 85.089844 183.898438 "/><g style="fill:#1c2f47;fill-opacity:1;"><g transform="translate(103.766922, 202.345124)"><path style="stroke:none" d="M 20.890625 -30.1875 C 23.378906 -30.1875 25.171875 -29.40625 26.265625 -27.84375 C 27.347656 -26.382812 27.890625 -24.175781 27.890625 -21.21875 L 27.890625 -21.4375 C 27.890625 -18.53125 27.347656 -16.316406 26.265625 -14.796875 C 25.171875 -13.265625 23.378906 -12.5 20.890625 -12.5 L 8.359375 -12.453125 L 8.359375 -1.25 C 8.359375 -0.6875 8.222656 -0.332031 7.953125 -0.1875 C 7.679688 -0.0390625 7.472656 0.03125 7.328125 0.03125 L 3.953125 0.03125 C 3.804688 0.03125 3.597656 -0.0390625 3.328125 -0.1875 C 3.066406 -0.332031 2.9375 -0.6875 2.9375 -1.25 L 2.9375 -16.640625 C 2.9375 -17.203125 3.066406 -17.546875 3.328125 -17.671875 C 3.597656 -17.804688 3.804688 -17.875 3.953125 -17.875 L 19.9375 -17.875 C 20.863281 -17.875 21.507812 -18.144531 21.875 -18.6875 C 22.257812 -19.226562 22.453125 -20.109375 22.453125 -21.328125 C 22.453125 -22.546875 22.257812 -23.425781 21.875 -23.96875 C 21.507812 -24.5 20.863281 -24.765625 19.9375 -24.765625 L 3.953125 -24.765625 C 3.804688 -24.765625 3.597656 -24.832031 3.328125 -24.96875 C 3.066406 -25.101562 2.9375 -25.453125 2.9375 -26.015625 L 2.9375 -28.90625 C 2.9375 -29.488281 3.066406 -29.847656 3.328125 -29.984375 C 3.597656 -30.117188 3.804688 -30.1875 3.953125 -30.1875 Z M 20.890625 -30.1875 "/></g></g><g style="fill:#1c2f47;fill-opacity:1;"><g transform="translate(136.406751, 202.345124)"><path style="stroke:none" d="M 30.046875 -30.1875 C 30.359375 -30.1875 30.578125 -30.03125 30.703125 -29.71875 C 30.773438 -29.425781 30.738281 -29.144531 30.59375 -28.875 L 19.5 -9.265625 L 19.5 -1.25 C 19.5 -0.6875 19.363281 -0.335938 19.09375 -0.203125 C 18.820312 -0.0664062 18.613281 0 18.46875 0 L 15.09375 0 C 14.945312 0 14.738281 -0.0664062 14.46875 -0.203125 C 14.195312 -0.335938 14.0625 -0.6875 14.0625 -1.25 L 14.0625 -9.265625 L 3.078125 -28.875 C 2.929688 -29.144531 2.894531 -29.410156 2.96875 -29.671875 C 3.039062 -30.015625 3.257812 -30.1875 3.625 -30.1875 L 7.796875 -30.1875 C 7.972656 -30.1875 8.15625 -30.144531 8.34375 -30.0625 C 8.539062 -29.976562 8.710938 -29.789062 8.859375 -29.5 L 16.859375 -14.84375 L 24.921875 -29.53125 C 25.066406 -29.800781 25.234375 -29.976562 25.421875 -30.0625 C 25.617188 -30.144531 25.804688 -30.1875 25.984375 -30.1875 Z M 30.046875 -30.1875 "/></g></g><g style="fill:#1c2f47;fill-opacity:1;"><g transform="translate(171.903936, 202.345124)"><path style="stroke:none" d="M 24.25 -30.1875 C 24.695312 -30.1875 25.132812 -30.09375 25.5625 -29.90625 C 25.988281 -29.726562 26.34375 -29.390625 26.625 -28.890625 C 26.90625 -28.390625 27.046875 -27.648438 27.046875 -26.671875 L 27.046875 -22.609375 C 27.046875 -22.359375 27.035156 -22.148438 27.015625 -21.984375 C 27.003906 -21.816406 26.988281 -21.644531 26.96875 -21.46875 C 26.945312 -21.300781 26.910156 -21.128906 26.859375 -20.953125 C 26.804688 -20.785156 26.757812 -20.628906 26.71875 -20.484375 C 26.5625 -20.160156 26.375 -19.890625 26.15625 -19.671875 C 25.914062 -19.429688 25.648438 -19.210938 25.359375 -19.015625 L 8.390625 -6.8125 C 8.367188 -6.8125 8.359375 -6.785156 8.359375 -6.734375 L 8.359375 -5.53125 C 8.359375 -5.457031 8.394531 -5.421875 8.46875 -5.421875 L 25.828125 -5.421875 C 25.972656 -5.421875 26.179688 -5.351562 26.453125 -5.21875 C 26.722656 -5.082031 26.859375 -4.734375 26.859375 -4.171875 L 26.859375 -1.25 C 26.859375 -0.6875 26.722656 -0.335938 26.453125 -0.203125 C 26.179688 -0.0664062 25.972656 0 25.828125 0 L 5.71875 0 C 4.71875 0 3.992188 -0.304688 3.546875 -0.921875 C 3.140625 -1.484375 2.9375 -2.335938 2.9375 -3.484375 L 2.9375 -7.40625 C 2.9375 -7.664062 2.9375 -7.894531 2.9375 -8.09375 C 2.9375 -8.289062 2.945312 -8.472656 2.96875 -8.640625 C 3.039062 -9.085938 3.125 -9.429688 3.21875 -9.671875 C 3.34375 -9.992188 3.515625 -10.265625 3.734375 -10.484375 C 3.929688 -10.703125 4.1875 -10.921875 4.5 -11.140625 L 21.578125 -23.453125 C 21.609375 -23.453125 21.625 -23.472656 21.625 -23.515625 L 21.625 -24.65625 C 21.625 -24.726562 21.585938 -24.765625 21.515625 -24.765625 L 4.140625 -24.765625 C 3.992188 -24.765625 3.785156 -24.832031 3.515625 -24.96875 C 3.242188 -25.101562 3.109375 -25.453125 3.109375 -26.015625 L 3.109375 -28.953125 C 3.109375 -29.503906 3.242188 -29.847656 3.515625 -29.984375 C 3.785156 -30.117188 3.992188 -30.1875 4.140625 -30.1875 Z M 24.25 -30.1875 "/></g></g><g style="fill:#c1175f;fill-opacity:1;"><g transform="translate(203.716134, 202.345124)"><path style="stroke:none" d="M 20.625 -18.03125 C 22.53125 -18.03125 23.984375 -17.359375 24.984375 -16.015625 C 25.941406 -14.691406 26.421875 -12.832031 26.421875 -10.4375 L 26.421875 -7.21875 C 26.421875 -5.113281 25.957031 -3.390625 25.03125 -2.046875 C 24.070312 -0.679688 22.582031 0 20.5625 0 L 4.03125 0 C 3.863281 0 3.644531 -0.0664062 3.375 -0.203125 C 3.101562 -0.335938 2.96875 -0.6875 2.96875 -1.25 L 2.96875 -4.171875 C 2.96875 -4.734375 3.101562 -5.082031 3.375 -5.21875 C 3.644531 -5.351562 3.863281 -5.421875 4.03125 -5.421875 L 19.671875 -5.421875 C 19.992188 -5.421875 20.222656 -5.472656 20.359375 -5.578125 C 20.492188 -5.691406 20.597656 -5.800781 20.671875 -5.90625 C 20.890625 -6.269531 21 -6.78125 21 -7.4375 L 21 -10.59375 C 21 -11.488281 20.847656 -12.046875 20.546875 -12.265625 C 20.253906 -12.492188 19.976562 -12.609375 19.71875 -12.609375 L 8.71875 -12.609375 C 7.957031 -12.609375 7.179688 -12.703125 6.390625 -12.890625 C 5.597656 -13.085938 4.921875 -13.566406 4.359375 -14.328125 C 3.410156 -15.671875 2.9375 -17.625 2.9375 -20.1875 L 2.9375 -22.96875 C 2.9375 -25.125 3.410156 -26.859375 4.359375 -28.171875 C 5.316406 -29.515625 6.796875 -30.1875 8.796875 -30.1875 L 24.578125 -30.1875 C 24.734375 -30.1875 24.941406 -30.117188 25.203125 -29.984375 C 25.472656 -29.847656 25.609375 -29.503906 25.609375 -28.953125 L 25.609375 -26.015625 C 25.609375 -25.453125 25.472656 -25.101562 25.203125 -24.96875 C 24.941406 -24.832031 24.734375 -24.765625 24.578125 -24.765625 L 9.671875 -24.765625 C 9.359375 -24.765625 9.132812 -24.710938 9 -24.609375 C 8.863281 -24.515625 8.757812 -24.410156 8.6875 -24.296875 C 8.488281 -23.898438 8.390625 -23.382812 8.390625 -22.75 L 8.390625 -20.046875 C 8.390625 -19.140625 8.53125 -18.578125 8.8125 -18.359375 C 9.09375 -18.140625 9.367188 -18.03125 9.640625 -18.03125 Z M 20.625 -18.03125 "/></g></g><g style="fill:#c1175f;fill-opacity:1;"><g transform="translate(234.890644, 202.345124)"><path style="stroke:none" d="M 24.953125 -6.5625 C 25.117188 -6.5625 25.335938 -6.492188 25.609375 -6.359375 C 25.878906 -6.222656 26.015625 -5.875 26.015625 -5.3125 L 26.015625 -1.28125 C 26.015625 -0.71875 25.878906 -0.367188 25.609375 -0.234375 C 25.335938 -0.0976562 25.117188 -0.03125 24.953125 -0.03125 L 11.9375 -0.03125 C 11.132812 -0.03125 10.390625 -0.078125 9.703125 -0.171875 C 9.023438 -0.273438 8.40625 -0.4375 7.84375 -0.65625 C 6.644531 -1.070312 5.691406 -1.742188 4.984375 -2.671875 C 4.253906 -3.628906 3.726562 -4.828125 3.40625 -6.265625 C 3.28125 -6.878906 3.175781 -7.550781 3.09375 -8.28125 C 3.007812 -9.007812 2.957031 -9.800781 2.9375 -10.65625 L 2.9375 -10.84375 L 3 -15.46875 C 3.070312 -15.726562 3.207031 -16.03125 3.40625 -16.375 C 3.945312 -17.332031 4.78125 -17.847656 5.90625 -17.921875 L 24.8125 -17.953125 C 24.957031 -17.953125 25.160156 -17.882812 25.421875 -17.75 C 25.691406 -17.613281 25.828125 -17.265625 25.828125 -16.703125 L 25.828125 -13.8125 C 25.828125 -13.25 25.691406 -12.894531 25.421875 -12.75 C 25.160156 -12.601562 24.957031 -12.53125 24.8125 -12.53125 L 8.421875 -12.53125 C 8.421875 -12.53125 8.414062 -12.394531 8.40625 -12.125 C 8.394531 -11.851562 8.382812 -11.546875 8.375 -11.203125 C 8.363281 -10.867188 8.359375 -10.566406 8.359375 -10.296875 C 8.359375 -10.023438 8.359375 -9.890625 8.359375 -9.890625 C 8.378906 -9.796875 8.390625 -9.691406 8.390625 -9.578125 C 8.390625 -9.472656 8.398438 -9.367188 8.421875 -9.265625 C 8.523438 -8.585938 8.734375 -8.039062 9.046875 -7.625 C 9.335938 -7.257812 9.707031 -6.988281 10.15625 -6.8125 C 10.414062 -6.738281 10.695312 -6.675781 11 -6.625 C 11.3125 -6.582031 11.664062 -6.5625 12.0625 -6.5625 Z M 6.15625 -17.625 Z M 24.984375 -30.265625 C 25.128906 -30.265625 25.335938 -30.191406 25.609375 -30.046875 C 25.878906 -29.898438 26.015625 -29.546875 26.015625 -28.984375 L 26.015625 -26.09375 C 26.015625 -25.53125 25.878906 -25.175781 25.609375 -25.03125 C 25.335938 -24.882812 25.128906 -24.8125 24.984375 -24.8125 L 3.921875 -24.84375 C 3.773438 -24.84375 3.570312 -24.910156 3.3125 -25.046875 C 3.0625 -25.179688 2.9375 -25.53125 2.9375 -26.09375 L 2.9375 -28.953125 C 2.9375 -29.535156 3.0625 -29.898438 3.3125 -30.046875 C 3.570312 -30.191406 3.773438 -30.265625 3.921875 -30.265625 Z M 24.984375 -30.265625 "/></g></g><g style="fill:#c1175f;fill-opacity:1;"><g transform="translate(265.662197, 202.345124)"><path style="stroke:none" d="M 28.875 -30.1875 C 29.019531 -30.1875 29.226562 -30.117188 29.5 -29.984375 C 29.769531 -29.847656 29.90625 -29.488281 29.90625 -28.90625 L 29.90625 -4.6875 C 29.90625 -2.90625 29.644531 -1.6875 29.125 -1.03125 C 28.613281 -0.320312 27.820312 0.03125 26.75 0.03125 L 24.078125 0.03125 C 23.585938 0.03125 23.171875 -0.00390625 22.828125 -0.078125 C 22.660156 -0.117188 22.488281 -0.171875 22.3125 -0.234375 C 22.144531 -0.296875 21.988281 -0.375 21.84375 -0.46875 C 21.539062 -0.644531 21.269531 -0.914062 21.03125 -1.28125 C 20.90625 -1.445312 20.769531 -1.640625 20.625 -1.859375 C 20.476562 -2.085938 20.332031 -2.347656 20.1875 -2.640625 L 8.578125 -23.234375 C 8.546875 -23.273438 8.519531 -23.300781 8.5 -23.3125 C 8.476562 -23.332031 8.46875 -23.34375 8.46875 -23.34375 L 8.28125 -23.34375 C 8.28125 -23.34375 8.28125 -23.332031 8.28125 -23.3125 C 8.28125 -23.300781 8.28125 -23.285156 8.28125 -23.265625 L 8.28125 -1.25 C 8.28125 -0.6875 8.148438 -0.332031 7.890625 -0.1875 C 7.640625 -0.0390625 7.425781 0.03125 7.25 0.03125 L 4 0.03125 C 3.820312 0.03125 3.597656 -0.0390625 3.328125 -0.1875 C 3.066406 -0.332031 2.9375 -0.6875 2.9375 -1.25 L 2.9375 -25.46875 C 2.9375 -27.25 3.191406 -28.484375 3.703125 -29.171875 C 4.234375 -29.847656 5.023438 -30.1875 6.078125 -30.1875 L 8.828125 -30.1875 C 9.078125 -30.1875 9.3125 -30.179688 9.53125 -30.171875 C 9.75 -30.160156 9.941406 -30.144531 10.109375 -30.125 C 10.503906 -30.050781 10.847656 -29.898438 11.140625 -29.671875 C 11.378906 -29.503906 11.632812 -29.226562 11.90625 -28.84375 C 12.03125 -28.664062 12.160156 -28.46875 12.296875 -28.25 C 12.429688 -28.03125 12.570312 -27.785156 12.71875 -27.515625 L 24.296875 -6.921875 C 24.316406 -6.847656 24.351562 -6.8125 24.40625 -6.8125 L 24.578125 -6.8125 C 24.578125 -6.84375 24.578125 -6.859375 24.578125 -6.859375 C 24.578125 -6.859375 24.578125 -6.867188 24.578125 -6.890625 L 24.578125 -28.90625 C 24.578125 -29.488281 24.707031 -29.847656 24.96875 -29.984375 C 25.226562 -30.117188 25.441406 -30.1875 25.609375 -30.1875 Z M 28.875 -30.1875 "/></g></g><g style="fill:#c1175f;fill-opacity:1;"><g transform="translate(300.316833, 202.345124)"><path style="stroke:none" d="M 28.25 -30.1875 C 28.414062 -30.1875 28.632812 -30.117188 28.90625 -29.984375 C 29.175781 -29.847656 29.3125 -29.503906 29.3125 -28.953125 L 29.3125 -26.09375 C 29.3125 -25.476562 29.175781 -25.101562 28.90625 -24.96875 C 28.632812 -24.832031 28.414062 -24.765625 28.25 -24.765625 L 18.828125 -24.765625 L 18.828125 -1.25 C 18.828125 -0.6875 18.695312 -0.335938 18.4375 -0.203125 C 18.1875 -0.0664062 17.976562 0 17.8125 0 L 14.4375 0 C 14.289062 0 14.082031 -0.0664062 13.8125 -0.203125 C 13.539062 -0.335938 13.40625 -0.6875 13.40625 -1.25 L 13.40625 -24.765625 L 4 -24.765625 C 3.820312 -24.765625 3.597656 -24.832031 3.328125 -24.96875 C 3.066406 -25.101562 2.9375 -25.476562 2.9375 -26.09375 L 2.9375 -28.953125 C 2.9375 -29.503906 3.066406 -29.847656 3.328125 -29.984375 C 3.597656 -30.117188 3.820312 -30.1875 4 -30.1875 Z M 28.25 -30.1875 "/></g></g></g></svg>